<svg id="Layer_1" data-name="Layer 1" xmlns="http://www.w3.org/2000/svg" viewBox="0 0 100 100"><defs><style>.cls-1{fill:#fff;}</style></defs><title>data</title><g id="ZPuImQ.tif"><path class="cls-1" d="M70.06,99.61V46.55H96c0,.38.06.76.06,1.14q0,25.36,0,50.72c0,.4,0,.8,0,1.2Z"/><path class="cls-1" d="M36.87,99.61a5.73,5.73,0,0,1-.19-1q0-17.61,0-35.22c0-.2,0-.39,0-.67H62.8V64q0,17.13,0,34.26a10.17,10.17,0,0,1-.19,1.4Z"/><path class="cls-1" d="M3.45,99.61q0-12.31,0-24.61a2.6,2.6,0,0,1,.09-.43H29.18v25Z"/><path class="cls-1" d="M48.45,55.55,36.61,44.38,12.67,68.32l-7.5-8.06,31.73-32L48.42,39.15,80.1,8.7,75.38,4.45,75.63,4l21-3.63-4,21-4.37-4.63Z"/></g></svg>