<svg id="Layer_1" data-name="Layer 1" xmlns="http://www.w3.org/2000/svg" viewBox="0 0 100 100"><defs><style>.cls-1{fill:#fff;}</style></defs><title>info</title><g id="_1OJjVR.tif" data-name="1OJjVR.tif"><path class="cls-1" d="M48.2,0H51.8c.27,0,.55.09.82.12,1,.09,2,.14,2.93.24A48.2,48.2,0,0,1,71.88,5.07,50,50,0,0,1,99.76,45.64c.07.85.16,1.71.24,2.56V51.8c0,.27-.09.55-.12.82-.18,1.73-.26,3.47-.53,5.19a47.68,47.68,0,0,1-7.79,19.88c-9,13.05-21.39,20.45-37.2,22.07-.89.09-1.79.16-2.68.24H48.32l-.89-.12c-2.46-.3-4.95-.45-7.37-.93a47.2,47.2,0,0,1-18.94-8.2C8.78,81.73,1.76,69.61.24,54.36.15,53.51.08,52.66,0,51.8V48.2c.09-1.09.17-2.19.28-3.28A50.53,50.53,0,0,1,4.83,28.6,50,50,0,0,1,45.64.24C46.49.17,47.34.08,48.2,0ZM7.67,50A42.33,42.33,0,1,0,50.52,7.66,42.34,42.34,0,0,0,7.67,50Z"/><path class="cls-1" d="M35.39,80.71V76.83c.64,0,1.26,0,1.87,0,1,0,1.93,0,2.88-.1,2-.22,2.77-1.12,2.78-3.13s0-3.93,0-5.89q0-8.65,0-17.31c0-1.87-.66-2.83-2.5-3.17A29.17,29.17,0,0,0,36.49,47c-.59,0-1.19,0-1.82,0V43.19l23.49-.84v.82q0,15.14,0,30.29c0,.22,0,.44,0,.66a2.22,2.22,0,0,0,2,2.44,27.87,27.87,0,0,0,3.22.27c.63,0,1.27,0,1.94,0v3.89Z"/><path class="cls-1" d="M49.06,36.51a8.63,8.63,0,1,1,8.6-8.67A8.66,8.66,0,0,1,49.06,36.51Z"/></g></svg>