<svg id="Layer_1" data-name="Layer 1" xmlns="http://www.w3.org/2000/svg" viewBox="0 0 100 100"><defs><style>.cls-1{fill:#fff;}</style></defs><title>phone</title><g id="sjt93n.tif"><path class="cls-1" d="M0,22.38C.16,21.25.31,20.13.47,19A25.85,25.85,0,0,1,5,7.79a29.21,29.21,0,0,1,5.64-5.9A7.75,7.75,0,0,1,21,2.38c3.23,3.16,6.41,6.38,9.61,9.58,1.84,1.84,3.67,3.7,5.52,5.54a7.92,7.92,0,0,1,.37,11.38c-2,2.18-4.13,4.21-6.21,6.3-.58.58-1.22,1.11-1.76,1.6A73.24,73.24,0,0,0,63.33,71.54l5.13-5.2c.88-.89,1.75-1.79,2.67-2.64a7.82,7.82,0,0,1,9.42-1.33,15.87,15.87,0,0,1,3.33,2.82c4.57,4.53,9.09,9.11,13.66,13.64A10.14,10.14,0,0,1,100,83.41v2.24a14.81,14.81,0,0,1-1.19,3,25.36,25.36,0,0,1-7,6.88,24.37,24.37,0,0,1-16.73,4.2,61.64,61.64,0,0,1-18.7-5.36A84.46,84.46,0,0,1,43,86.7,112.64,112.64,0,0,1,28.22,74.38a175.71,175.71,0,0,1-12.7-13.77A80.09,80.09,0,0,1,4,42.77,43.65,43.65,0,0,1,.49,31Q.25,29.23,0,27.5Z"/></g></svg>